<?xml version="1.0" encoding="iso-8859-1"?>
<!-- Uploaded to: SVG Repo, www.svgrepo.com, Generator: SVG Repo Mixer Tools -->
<svg height="800px" width="800px" version="1.1" id="Layer_1" xmlns="http://www.w3.org/2000/svg" xmlns:xlink="http://www.w3.org/1999/xlink" 
	 viewBox="0 0 512.001 512.001" xml:space="preserve">
<polygon style="fill:#7F8499;" points="153.386,225.895 8.018,80.527 8.017,153.083 153.386,298.453 "/>
<polygon style="fill:#959CB5;" points="153.386,225.895 8.018,80.527 8.017,116.805 153.386,262.173 "/>
<polygon style="fill:#7F8499;" points="360.613,215.444 358.538,285.928 503.832,431.222 503.834,358.664 "/>
<g>
	<polygon style="fill:#959CB5;" points="360.613,215.444 359.576,250.686 503.833,394.944 503.834,358.664 	"/>
	<path style="fill:#959CB5;" d="M141.19,334.48L141.19,334.48c-10.019-10.019-10.019-26.262,0-36.279l120.931-120.931
		c10.019-10.019,26.262-10.019,36.279,0l0,0c10.019,10.019,10.019,26.262,0,36.279L177.469,334.48
		C167.451,344.498,151.208,344.498,141.19,334.48z"/>
</g>
<path style="fill:#7F8499;" d="M159.329,316.34l120.931-120.931c6.698-6.698,16.152-8.811,24.694-6.554
	c-1.119-4.236-3.233-8.265-6.554-11.586c-10.019-10.019-26.261-10.019-36.279,0L141.19,298.2c-10.019,10.019-10.019,26.262,0,36.279
	c3.321,3.321,7.35,5.434,11.586,6.554C150.518,332.491,152.633,323.037,159.329,316.34z"/>
<path style="fill:#959CB5;" d="M213.749,334.48L213.749,334.48c-10.019-10.019-10.019-26.262,0-36.279L334.68,177.269
	c10.019-10.019,26.262-10.019,36.279,0l0,0c10.019,10.019,10.019,26.262,0,36.279L250.028,334.48
	C240.01,344.498,223.768,344.498,213.749,334.48z"/>
<path style="fill:#7F8499;" d="M231.889,316.34L352.82,195.408c6.698-6.698,16.152-8.811,24.694-6.554
	c-1.119-4.236-3.233-8.265-6.554-11.586c-10.019-10.019-26.262-10.019-36.279,0L213.749,298.2
	c-10.019,10.019-10.019,26.262,0,36.279c3.321,3.321,7.35,5.434,11.586,6.554C223.078,332.491,225.191,323.037,231.889,316.34z"/>
<path style="fill:#959CB5;" d="M225.842,177.269L225.842,177.269c10.019,10.019,10.019,26.262,0,36.279L8.167,431.222l-0.001-72.558
	l181.397-181.397C199.581,167.25,215.824,167.25,225.842,177.269z"/>
<path style="fill:#7F8499;" d="M207.702,195.408c6.698-6.698,16.152-8.811,24.694-6.554c-1.119-4.236-3.233-8.265-6.554-11.586
	c-10.019-10.019-26.262-10.019-36.279,0L8.166,358.664l0.001,36.278L207.702,195.408z"/>
<path style="fill:#959CB5;" d="M286.307,334.48L286.307,334.48c-10.019-10.019-10.019-26.262,0-36.279L503.982,80.527l0.001,72.558
	L322.587,334.48C312.569,344.498,296.326,344.498,286.307,334.48z"/>
<path style="fill:#7F8499;" d="M304.448,316.34l199.535-199.535l-0.001-36.278L286.307,298.2c-10.019,10.019-10.019,26.262,0,36.279
	c3.321,3.321,7.35,5.434,11.586,6.554C295.637,332.491,297.75,323.037,304.448,316.34z"/>
<path d="M512,153.135v-72.56c0-3.243-1.953-6.165-4.949-7.406c-2.994-1.24-6.443-0.555-8.736,1.738L385.49,187.731
	c-1.388-5.869-4.367-11.436-8.936-16.006c-13.128-13.126-34.489-13.127-47.616,0l-16.006,16.006
	c-1.389-5.87-4.366-11.436-8.936-16.006c-13.128-13.126-34.489-13.127-47.617,0l-16.006,16.006
	c-1.388-5.87-4.366-11.436-8.936-16.006c-13.128-13.126-34.489-13.127-47.617,0l-36.658,36.658L13.685,74.906
	c-2.293-2.293-5.742-2.978-8.736-1.738C1.953,74.41,0,77.333,0,80.576v72.56c0,2.126,0.844,4.165,2.348,5.668L99.545,256
	L2.348,353.197C0.844,354.7,0,356.739,0,358.865v72.56c0,3.243,1.953,6.165,4.949,7.406c0.992,0.41,2.033,0.61,3.067,0.61
	c2.086,0,4.137-0.814,5.67-2.348L126.511,324.27c1.388,5.869,4.368,11.436,8.937,16.005c6.359,6.36,14.815,9.863,23.807,9.863
	c8.994,0,17.45-3.503,23.809-9.863l16.006-16.006c1.388,5.869,4.366,11.436,8.936,16.006c6.36,6.36,14.815,9.863,23.809,9.863
	c8.994,0,17.45-3.503,23.809-9.863l16.006-16.006c1.388,5.869,4.366,11.436,8.936,16.006c6.359,6.36,14.815,9.863,23.809,9.863
	c8.994,0,17.45-3.503,23.809-9.863l36.657-36.657l133.477,133.477c1.534,1.534,3.584,2.348,5.671,2.348
	c1.033,0,2.075-0.2,3.067-0.61c2.996-1.241,4.949-4.164,4.949-7.406v-72.56c0-2.126-0.844-4.165-2.348-5.668L412.455,256
	l97.197-97.197C511.156,157.3,512,155.261,512,153.135z M16.033,149.814V99.929l119.791,119.792l-24.943,24.943L16.033,149.814z
	 M16.033,412.072v-49.885l179.123-179.123c6.877-6.876,18.066-6.876,24.943,0c6.875,6.875,6.876,18.06,0.004,24.936
	c-0.002,0.002-0.004,0.003-0.005,0.005L16.033,412.072z M495.967,362.186v49.885L376.176,292.281l24.943-24.943L495.967,362.186z
	 M495.967,149.814L316.844,328.937c-3.332,3.332-7.76,5.166-12.471,5.166c-4.711,0-9.14-1.834-12.471-5.166
	c-6.876-6.875-6.876-18.063-0.001-24.94c0.003-0.003,0.006-0.007,0.01-0.011l27.415-27.416c3.131-3.131,3.131-8.207,0-11.337
	c-3.131-3.131-8.207-3.131-11.337,0l-63.704,63.704c-3.332,3.332-7.76,5.166-12.471,5.166c-4.711,0-9.14-1.834-12.471-5.166
	c-6.876-6.875-6.876-18.063-0.001-24.94c0.009-0.009,0.016-0.018,0.025-0.027l62.612-62.613c3.131-3.131,3.131-8.207,0-11.337
	c-3.131-3.131-8.207-3.131-11.337,0l-98.915,98.916c-3.331,3.332-7.76,5.166-12.471,5.166c-4.711,0-9.14-1.834-12.471-5.166
	c-6.876-6.875-6.876-18.063-0.001-24.94c0.009-0.009,0.016-0.018,0.025-0.027l120.907-120.907c6.877-6.876,18.066-6.876,24.943,0
	c6.876,6.876,6.876,18.065,0,24.942c-3.131,3.131-3.13,8.207,0,11.337c3.131,3.132,8.207,3.131,11.337,0l36.278-36.278
	c6.876-6.876,18.066-6.876,24.942,0c6.875,6.876,6.876,18.063,0.001,24.941c-3.13,3.131-3.13,8.207,0.001,11.337
	c3.131,3.131,8.206,3.13,11.337,0L495.967,99.929V149.814z"/>
<path d="M341.659,231.563l-9.62,9.62c-3.131,3.131-3.131,8.207,0,11.337c1.565,1.565,3.617,2.348,5.668,2.348
	s4.103-0.782,5.668-2.348l9.62-9.62c3.131-3.131,3.131-8.207,0-11.337C349.865,228.433,344.789,228.433,341.659,231.563z"/>
</svg>